<svg width="16" height="16" viewBox="0 0 16 16" fill="none" xmlns="http://www.w3.org/2000/svg">
<path d="M13.85 13.15L11.16 10.46C11.9 9.56 12.36 8.43 12.36 7.18C12.37 4.33 10.04 2 7.18 2C4.32 2 2 4.33 2 7.18C2 10.03 4.33 12.36 7.18 12.36C8.43 12.36 9.56 11.9 10.46 11.16L13.15 13.85C13.25 13.95 13.38 14 13.5 14C13.62 14 13.76 13.95 13.85 13.85C14.05 13.66 14.05 13.34 13.85 13.15ZM3 7.18C3 4.88 4.88 3 7.18 3C9.48 3 11.36 4.88 11.36 7.18C11.36 9.48 9.48 11.36 7.18 11.36C4.88 11.36 3 9.49 3 7.18Z" fill="white"/>
</svg>
