<svg width="18" height="18" viewBox="0 0 18 18" fill="none" xmlns="http://www.w3.org/2000/svg">
<path d="M15.8595 6.432L10.197 1.83075C9.50325 1.2675 8.49675 1.2675 7.803 1.83075L2.14125 6.43125C1.9425 6.5925 1.82925 6.831 1.82925 7.086V15.7432C1.82925 16.2082 2.208 16.5907 2.673 16.5907H6.4695C6.9345 16.5907 7.31325 16.2082 7.31325 15.7432V10.2637H10.6875V15.7432C10.6875 16.2082 11.0662 16.5907 11.5312 16.5907H15.3278C15.7928 16.5907 16.1715 16.2082 16.1715 15.7432V7.086C16.1708 6.831 16.0575 6.5925 15.8595 6.432ZM15.327 15.7477H11.5305V10.26C11.5305 9.795 11.1517 9.42075 10.6868 9.42075H7.3125C6.8475 9.42075 6.46875 9.795 6.46875 10.26V15.7477H2.673V7.086L8.3355 2.4855C8.72025 2.172 9.2805 2.17275 9.66525 2.4855L15.3278 7.086L15.327 15.7477Z" fill="white"/>
</svg>
